<svg width="33" height="33" viewBox="0 0 33 33" fill="none" xmlns="http://www.w3.org/2000/svg">
<path d="M1.03125 16.5C1.03125 23.2547 5.3625 28.9781 11.3438 31.0922V1.90781C5.3625 4.02187 1.03125 9.74531 1.03125 16.5Z" fill="#83BF4F"/>
<path d="M31.9688 16.5C31.9688 9.74531 27.6891 4.02187 21.6562 1.90781V31.0922C27.6891 28.9781 31.9688 23.2547 31.9688 16.5Z" fill="#83BF4F"/>
<path d="M11.3438 31.0922C12.9422 31.6594 14.6953 31.9688 16.5 31.9688C18.3047 31.9688 20.0578 31.6594 21.6562 31.0922V1.90781C20.0578 1.34063 18.3047 1.03125 16.5 1.03125C14.6953 1.03125 12.9422 1.34063 11.3438 1.90781V31.0922Z" fill="#F9F9F9"/>
</svg>
