<?xml version="1.0" standalone="no"?><svg xmlns:xlink="http://www.w3.org/1999/xlink" xmlns="http://www.w3.org/2000/svg" viewBox="0 0 1000 727.2727272727274" preserveAspectRatio="xMaxYMax slice"><g transform="scale(1.5741833923652107)"><rect x="0" y="0" width="635.25" height="462" fill="#000000"/><circle cx="28.875" cy="28.875" r="5.775" fill="#dfd620"/><circle cx="86.625" cy="28.875" r="5.775" fill="#9e8461"/><circle cx="144.375" cy="28.875" r="5.775" fill="#88266F"/><circle cx="202.125" cy="28.875" r="5.775" fill="#000000"/><circle cx="259.875" cy="28.875" r="5.775" fill="#000000"/><circle cx="317.625" cy="28.875" r="5.775" fill="#88266F"/><circle cx="375.375" cy="28.875" r="5.775" fill="#dfd620"/><circle cx="433.125" cy="28.875" r="5.775" fill="#88266F"/><circle cx="490.875" cy="28.875" r="5.775" fill="#dfd620"/><circle cx="548.625" cy="28.875" r="5.775" fill="#dfd620"/><circle cx="606.375" cy="28.875" r="5.775" fill="#9e8461"/><circle cx="28.875" cy="86.625" r="5.775" fill="#88266F"/><circle cx="86.625" cy="86.625" r="7.285" fill="#000000"/><circle cx="144.38000000000002" cy="86.63" r="8.8" fill="#dfd620"/><circle cx="202.12" cy="86.62" r="10.31" fill="#dfd620"/><circle cx="259.875" cy="86.625" r="11.825" fill="#000000"/><circle cx="317.625" cy="86.625" r="12.705" fill="#88266F"/><circle cx="375.375" cy="86.625" r="12.705" fill="#dfd620"/><circle cx="433.125" cy="86.625" r="11.825" fill="#9e8461"/><circle cx="490.87" cy="86.62" r="10.31" fill="#000000"/><circle cx="548.63" cy="86.63" r="8.8" fill="#000000"/><circle cx="606.375" cy="86.625" r="7.285" fill="#dfd620"/><circle cx="28.875" cy="144.375" r="5.775" fill="#dfd620"/><circle cx="86.63" cy="144.38000000000002" r="8.8" fill="#000000"/><circle cx="144.375" cy="144.375" r="11.825" fill="#dfd620"/><circle cx="202.125" cy="144.375" r="14.845" fill="#9e8461"/><circle cx="259.87" cy="144.37" r="17.87" fill="#9e8461"/><circle cx="317.625" cy="144.375" r="19.635" fill="#dfd620"/><circle cx="375.375" cy="144.375" r="19.635" fill="#88266F"/><circle cx="433.12" cy="144.37" r="17.87" fill="#dfd620"/><circle cx="490.875" cy="144.375" r="14.845" fill="#9e8461"/><circle cx="548.625" cy="144.375" r="11.825" fill="#000000"/><circle cx="606.38" cy="144.38000000000002" r="8.8" fill="#88266F"/><circle cx="28.875" cy="202.125" r="5.775" fill="#000000"/><circle cx="86.62" cy="202.12" r="10.31" fill="#000000"/><circle cx="144.375" cy="202.125" r="14.845" fill="#dfd620"/><circle cx="202.125" cy="202.125" r="19.385" fill="#dfd620"/><circle cx="259.88" cy="202.13" r="23.92" fill="#dfd620"/><circle cx="317.625" cy="202.125" r="26.565" fill="#9e8461"/><circle cx="375.375" cy="202.125" r="26.565" fill="#dfd620"/><circle cx="433.13" cy="202.13" r="23.92" fill="#9e8461"/><circle cx="490.875" cy="202.125" r="19.385" fill="#88266F"/><circle cx="548.625" cy="202.125" r="14.845" fill="#9e8461"/><circle cx="606.3699999999999" cy="202.12" r="10.31" fill="#000000"/><circle cx="28.875" cy="259.875" r="5.775" fill="#88266F"/><circle cx="86.625" cy="259.875" r="10.815" fill="#000000"/><circle cx="144.375" cy="259.875" r="15.855" fill="#88266F"/><circle cx="202.125" cy="259.875" r="20.895" fill="#9e8461"/><circle cx="259.875" cy="259.875" r="25.935" fill="#88266F"/><circle cx="317.625" cy="259.875" r="28.875" fill="#dfd620"/><circle cx="375.375" cy="259.875" r="28.875" fill="#9e8461"/><circle cx="433.125" cy="259.875" r="25.935" fill="#9e8461"/><circle cx="490.875" cy="259.875" r="20.895" fill="#000000"/><circle cx="548.625" cy="259.875" r="15.855" fill="#9e8461"/><circle cx="606.375" cy="259.875" r="10.815" fill="#9e8461"/><circle cx="28.875" cy="317.625" r="5.775" fill="#9e8461"/><circle cx="86.62" cy="317.62" r="10.31" fill="#88266F"/><circle cx="144.375" cy="317.625" r="14.845" fill="#dfd620"/><circle cx="202.125" cy="317.625" r="19.385" fill="#9e8461"/><circle cx="259.88" cy="317.63" r="23.92" fill="#dfd620"/><circle cx="317.625" cy="317.625" r="26.565" fill="#88266F"/><circle cx="375.375" cy="317.625" r="26.565" fill="#9e8461"/><circle cx="433.13" cy="317.63" r="23.92" fill="#88266F"/><circle cx="490.875" cy="317.625" r="19.385" fill="#9e8461"/><circle cx="548.625" cy="317.625" r="14.845" fill="#000000"/><circle cx="606.3699999999999" cy="317.62" r="10.31" fill="#88266F"/><circle cx="28.875" cy="375.375" r="5.775" fill="#dfd620"/><circle cx="86.63" cy="375.38" r="8.8" fill="#dfd620"/><circle cx="144.375" cy="375.375" r="11.825" fill="#88266F"/><circle cx="202.125" cy="375.375" r="14.845" fill="#88266F"/><circle cx="259.87" cy="375.37" r="17.87" fill="#dfd620"/><circle cx="317.625" cy="375.375" r="19.635" fill="#000000"/><circle cx="375.375" cy="375.375" r="19.635" fill="#88266F"/><circle cx="433.12" cy="375.37" r="17.87" fill="#dfd620"/><circle cx="490.875" cy="375.375" r="14.845" fill="#9e8461"/><circle cx="548.625" cy="375.375" r="11.825" fill="#000000"/><circle cx="606.38" cy="375.38" r="8.8" fill="#dfd620"/><circle cx="28.875" cy="433.125" r="5.775" fill="#88266F"/><circle cx="86.625" cy="433.125" r="7.285" fill="#000000"/><circle cx="144.38000000000002" cy="433.13" r="8.8" fill="#9e8461"/><circle cx="202.12" cy="433.12" r="10.31" fill="#9e8461"/><circle cx="259.875" cy="433.125" r="11.825" fill="#9e8461"/><circle cx="317.625" cy="433.125" r="12.705" fill="#dfd620"/><circle cx="375.375" cy="433.125" r="12.705" fill="#9e8461"/><circle cx="433.125" cy="433.125" r="11.825" fill="#dfd620"/><circle cx="490.87" cy="433.12" r="10.31" fill="#000000"/><circle cx="548.63" cy="433.13" r="8.8" fill="#9e8461"/><circle cx="606.375" cy="433.125" r="7.285" fill="#000000"/></g></svg>