<?xml version="1.0" standalone="no"?><svg xmlns="http://www.w3.org/2000/svg" viewBox="0 0 1440 320"><path fill="#88266F" fill-opacity="1" d="M0,256L24,234.7C48,213,96,171,144,133.3C192,96,240,64,288,64C336,64,384,96,432,96C480,96,528,64,576,53.3C624,43,672,53,720,80C768,107,816,149,864,176C912,203,960,213,1008,197.3C1056,181,1104,139,1152,144C1200,149,1248,203,1296,208C1344,213,1392,171,1416,149.3L1440,128L1440,320L1416,320C1392,320,1344,320,1296,320C1248,320,1200,320,1152,320C1104,320,1056,320,1008,320C960,320,912,320,864,320C816,320,768,320,720,320C672,320,624,320,576,320C528,320,480,320,432,320C384,320,336,320,288,320C240,320,192,320,144,320C96,320,48,320,24,320L0,320Z"></path></svg>