<?xml version="1.0" standalone="no"?><svg xmlns="http://www.w3.org/2000/svg" viewBox="0 0 1440 320"><path fill="#88266F" fill-opacity="1" d="M0,256L0,224L72,224L72,320L144,320L144,160L216,160L216,96L288,96L288,288L360,288L360,160L432,160L432,256L504,256L504,96L576,96L576,224L648,224L648,320L720,320L720,128L792,128L792,288L864,288L864,192L936,192L936,64L1008,64L1008,224L1080,224L1080,224L1152,224L1152,96L1224,96L1224,128L1296,128L1296,96L1368,96L1368,288L1440,288L1440,320L1368,320L1368,320L1296,320L1296,320L1224,320L1224,320L1152,320L1152,320L1080,320L1080,320L1008,320L1008,320L936,320L936,320L864,320L864,320L792,320L792,320L720,320L720,320L648,320L648,320L576,320L576,320L504,320L504,320L432,320L432,320L360,320L360,320L288,320L288,320L216,320L216,320L144,320L144,320L72,320L72,320L0,320L0,320Z"></path></svg>