<?xml version="1.0" standalone="no"?>
<svg viewBox="0 0 200 200" xmlns="http://www.w3.org/2000/svg">
  <path fill="#FFFFFF" d="M32.1,-56.6C43.2,-49.3,54.7,-43.8,61.9,-34.6C69.1,-25.5,72.1,-12.7,67.8,-2.5C63.6,7.8,52.1,15.6,44,23.2C35.8,30.8,31.1,38.2,24.3,36.7C17.6,35.3,8.8,24.9,1,23.2C-6.8,21.4,-13.5,28.3,-23.7,31.7C-33.8,35.1,-47.3,35.1,-49.8,29.3C-52.3,23.4,-43.8,11.7,-36.5,4.2C-29.3,-3.4,-23.4,-6.7,-25.5,-20.6C-27.6,-34.4,-37.8,-58.7,-34.9,-70.7C-31.9,-82.6,-16,-82.3,-2.7,-77.6C10.6,-72.9,21.1,-63.9,32.1,-56.6Z" transform="translate(100 100)" />
</svg>
